# xmcd
#
# Track frame offsets:
#	150
#	17173
#	33097
#	48984
#	64208
#	83200
#	96861
#	114219
#	128718
#	144172
#	159882
#	178519
#	195887
#	211252
#	225479
#	244336
#	259982
#	278363
#	294491
#	314874
#	331002
#
# Disc length: 4693 seconds
#
# Revision: 0
# Processed by: cddbd v1.5.1PL0 Copyright (c) Steve Scherf et al.
# Submitted via: dBpowerAMP V4.0
#
DISCID=16125315
DTITLE=Various Artist - Country
DYEAR=2005
DGENRE=Country
TTITLE0=a - Everyone
TTITLE1=s - a
TTITLE2=c - b
TTITLE3=d - c
TTITLE4=e - d
TTITLE5=f - e
TTITLE6=g - f
TTITLE7=h - g
TTITLE8=j - h
TTITLE9=k - i
TTITLE10=l - j
TTITLE11=p - k
TTITLE12=o - l
TTITLE13=u - m
TTITLE14=u - n
TTITLE15=y - o
TTITLE16=t - p
TTITLE17=r - q
TTITLE18=w - r
TTITLE19=q - s
TTITLE20=z - t
EXTD=Toby Kieth, Shocking Y'all\n
EXTT0=
EXTT1=
EXTT2=
EXTT3=
EXTT4=
EXTT5=
EXTT6=
EXTT7=
EXTT8=
EXTT9=
EXTT10=
EXTT11=
EXTT12=
EXTT13=
EXTT14=
EXTT15=
EXTT16=
EXTT17=
EXTT18=
EXTT19=
EXTT20=
PLAYORDER=
